<svg width="15" height="16" fill="none" xmlns="http://www.w3.org/2000/svg"><path d="M4.145 2.545a2.045 2.045 0 11-4.09 0 2.045 2.045 0 014.09 0zm-.463 3.41v9.036a.506.506 0 01-.506.509H1.02a.506.506 0 01-.507-.507V5.955a.507.507 0 01.507-.508h2.156a.507.507 0 01.506.508zm11.269 4.704v4.375a.464.464 0 01-.466.466h-2.319a.466.466 0 01-.466-.466v-4.24c0-.633.186-2.77-1.654-2.77-1.425 0-1.716 1.462-1.773 2.12v4.89a.466.466 0 01-.46.466H5.576a.466.466 0 01-.465-.466V5.915a.465.465 0 01.465-.466h2.239a.466.466 0 01.466.466v.788c.53-.793 1.313-1.406 2.986-1.406 3.707 0 3.685 3.461 3.685 5.362z" fill="#090F1D"/></svg>