<svg width="15" height="14" fill="none" xmlns="http://www.w3.org/2000/svg"><path d="M14.971 2.46a6.43 6.43 0 01-1.286 1.412.545.545 0 00-.205.428v.05a9.016 9.016 0 01-.581 3.137 9.181 9.181 0 01-1.709 2.864 8.368 8.368 0 01-3.69 2.435 9.27 9.27 0 01-2.91.453 8.881 8.881 0 01-4.454-1.203.255.255 0 01-.121-.284.247.247 0 01.241-.185H.63c1.19 0 2.351-.356 3.337-1.021a3.244 3.244 0 01-2.561-2.199.17.17 0 01.192-.218c.18.034.363.052.546.052h.068A3.243 3.243 0 01.323 5.197a.17.17 0 01.252-.147c.232.129.48.225.737.286A3.239 3.239 0 01.787 1.41a.17.17 0 01.273-.023 8.478 8.478 0 005.832 3.112h.012a.125.125 0 00.089-.041.119.119 0 00.028-.092 3.492 3.492 0 01.077-1.183c.081-.34.22-.662.409-.955a3.136 3.136 0 011.71-1.31A3.454 3.454 0 0110.24.76a3.23 3.23 0 012.14.807.421.421 0 00.272.107.41.41 0 00.098-.014 5.953 5.953 0 001.58-.653.17.17 0 01.249.198 3.226 3.226 0 01-.85 1.355c.354-.085.7-.202 1.033-.35a.17.17 0 01.208.25z" fill="#090F1D"/></svg>