<?xml version="1.0" encoding="utf-8"?><svg viewBox="0 0 18 18" xmlns="http://www.w3.org/2000/svg" xmlns:xlink="http://www.w3.org/1999/xlink"><style>:root>svg{display:none}:root>svg:target{display:block}</style><svg viewBox="0 0 18 18" id="icon-close" xmlns="http://www.w3.org/2000/svg"><g clip-path="url(#aa)"><path d="m10.055 9.005 7.716-7.716A.75.75 0 1 0 16.71.23L8.995 7.945 1.28.23A.75.75 0 0 0 .22 1.29l7.716 7.716L.22 16.721a.75.75 0 0 0 1.06 1.06l7.716-7.716 7.716 7.716a.75.75 0 0 0 1.06-1.06l-7.716-7.716Z"/></g><defs><clipPath id="aa"><path d="M0 0h18v18H0z"/></clipPath></defs></svg><svg viewBox="0 0 9 16" id="icon-facebook" xmlns="http://www.w3.org/2000/svg"><path d="M8.302 6.58 8.06 8.67a.391.391 0 0 1-.384.35H5.494l-.01 6.198a.28.28 0 0 1-.274.282H3a.273.273 0 0 1-.273-.284V9.02H1.091a.391.391 0 0 1-.387-.395l-.009-2.09a.393.393 0 0 1 .388-.4h1.644V4.119C2.727 1.775 4.118.5 6.158.5H7.83a.393.393 0 0 1 .389.398v1.76a.393.393 0 0 1-.389.397H6.805c-1.11 0-1.325.546-1.325 1.334v1.747h2.437a.393.393 0 0 1 .385.443Z"/></svg><svg viewBox="0 0 15 16" id="icon-linkedin" xmlns="http://www.w3.org/2000/svg"><path d="M4.145 2.545a2.045 2.045 0 1 1-4.09 0 2.045 2.045 0 0 1 4.09 0Zm-.463 3.41v9.036a.506.506 0 0 1-.506.509H1.02a.506.506 0 0 1-.507-.507V5.955a.507.507 0 0 1 .507-.508h2.156a.507.507 0 0 1 .506.508Zm11.269 4.704v4.375a.464.464 0 0 1-.466.466h-2.319a.466.466 0 0 1-.466-.466v-4.24c0-.633.186-2.77-1.654-2.77-1.425 0-1.716 1.462-1.773 2.12v4.89a.466.466 0 0 1-.46.466H5.576a.466.466 0 0 1-.465-.466V5.915a.465.465 0 0 1 .465-.466h2.239a.466.466 0 0 1 .466.466v.788c.53-.793 1.313-1.406 2.986-1.406 3.707 0 3.685 3.461 3.685 5.362Z"/></svg><svg viewBox="0 0 15 12" id="icon-telegram" xmlns="http://www.w3.org/2000/svg"><path d="m14.037.205-.248.09L.32 5.148a.451.451 0 0 0 .04.872l3.486.955.65 1.91.651 1.908a.619.619 0 0 0 .999.223l1.8-1.702 3.538 2.398c.432.295 1.049.077 1.16-.409L14.984.952c.115-.513-.425-.934-.948-.747Zm-1.72 2.297L6.233 7.477l-.287.234a.31.31 0 0 0-.114.202l-.064.53-.176 1.486a.068.068 0 0 1-.136.01L4.96 8.456l-.512-1.52a.308.308 0 0 1 .147-.365l6.333-3.63 1.192-.682c.173-.1.35.119.198.244Z"/></svg><svg viewBox="0 0 15 14" id="icon-twitter" xmlns="http://www.w3.org/2000/svg"><path d="M14.971 2.46a6.43 6.43 0 0 1-1.286 1.412.545.545 0 0 0-.205.428v.05a9.016 9.016 0 0 1-.581 3.137 9.181 9.181 0 0 1-1.709 2.864 8.368 8.368 0 0 1-3.69 2.435 9.27 9.27 0 0 1-2.91.453 8.881 8.881 0 0 1-4.454-1.203.255.255 0 0 1-.121-.284.247.247 0 0 1 .241-.185H.63c1.19 0 2.351-.356 3.337-1.021a3.244 3.244 0 0 1-2.561-2.199.17.17 0 0 1 .192-.218c.18.034.363.052.546.052h.068A3.243 3.243 0 0 1 .323 5.197a.17.17 0 0 1 .252-.147c.232.129.48.225.737.286A3.239 3.239 0 0 1 .787 1.41a.17.17 0 0 1 .273-.023 8.478 8.478 0 0 0 5.832 3.112h.012a.125.125 0 0 0 .089-.041.119.119 0 0 0 .028-.092 3.492 3.492 0 0 1 .077-1.183c.081-.34.22-.662.409-.955A3.136 3.136 0 0 1 9.217.918 3.454 3.454 0 0 1 10.24.76a3.23 3.23 0 0 1 2.14.807.421.421 0 0 0 .272.107.41.41 0 0 0 .098-.014 5.953 5.953 0 0 0 1.58-.653.17.17 0 0 1 .249.198 3.226 3.226 0 0 1-.85 1.355c.354-.085.7-.202 1.033-.35a.17.17 0 0 1 .208.25Z"/></svg></svg>